<?xml version="1.0" standalone="no"?>
<!DOCTYPE svg PUBLIC "-//W3C//DTD SVG 20010904//EN"
 "http://www.w3.org/TR/2001/REC-SVG-20010904/DTD/svg10.dtd">
<svg version="1.0" xmlns="http://www.w3.org/2000/svg"
 width="800.000000pt" height="600.000000pt" viewBox="0 0 800.000000 600.000000"
 preserveAspectRatio="xMidYMid meet">

<g transform="translate(0.000000,600.000000) scale(0.100000,-0.100000)"
fill="#000000" stroke="none">
<path d="M1920 5680 c0 -5 -6 -7 -12 -5 -10 4 -13 -33 -13 -167 0 -371 -25
-2557 -31 -2619 l-5 -65 75 -24 75 -23 -6 -67 c-6 -66 -5 -68 31 -107 l36 -40
0 -1104 c0 -984 2 -1107 16 -1127 l15 -22 2003 0 2004 0 15 23 c11 17 16 73
22 230 4 114 11 210 16 213 5 3 9 29 9 58 0 30 6 60 15 72 11 14 14 49 15 132
0 106 -1 114 -20 119 -11 3 -20 9 -20 13 0 5 9 12 20 15 19 6 20 15 20 129 0
175 -10 276 -26 276 -22 0 -16 31 6 37 19 5 20 14 20 134 0 122 -1 129 -20
129 -11 0 -20 5 -20 10 0 6 9 10 20 10 19 0 20 7 20 129 0 120 -1 129 -20 134
-20 5 -20 14 -21 1184 -1 648 -1 1181 0 1186 1 10 -13 9 -25 -3 -6 -6 -30 -6
-64 -1 -97 15 -136 89 -87 162 30 45 83 60 132 36 l35 -17 0 314 0 315 -27 20
c-26 21 -36 21 -447 23 -232 1 -451 1 -488 1 -53 -1 -68 2 -68 13 0 10 -13 14
-45 14 -33 0 -45 -4 -45 -15 0 -13 -26 -15 -170 -15 -144 0 -170 2 -170 15 0
11 -11 15 -40 15 -29 0 -40 -4 -40 -15 0 -11 -12 -15 -47 -15 -43 0 -51 4
-109 60 -52 50 -68 60 -97 60 -52 0 -70 -9 -56 -26 20 -24 0 -29 -24 -6 -18
17 -36 22 -82 22 -46 0 -56 -3 -47 -12 7 -7 12 -16 12 -20 0 -16 -27 -7 -50
17 -39 41 -144 31 -110 -10 20 -24 -19 -19 -45 5 -17 16 -41 21 -127 26 l-106
7 -49 -47 c-44 -41 -55 -46 -96 -46 -25 0 -47 -5 -49 -11 -2 -5 -28 -12 -58
-15 -30 -3 -58 -11 -62 -17 -4 -7 -8 2 -8 21 l0 32 -155 0 c-148 0 -155 -1
-155 -20 0 -13 -7 -20 -20 -20 -13 0 -20 7 -20 19 0 26 -53 33 -195 25 -102
-6 -115 -9 -115 -25 0 -16 -13 -18 -145 -21 l-145 -3 -153 153 -152 152 -112
0 c-66 0 -113 -4 -113 -10z m61 -240 c5 0 9 -5 9 -10 0 -7 -6 -7 -20 0 -12 6
-20 7 -20 1 0 -5 6 -12 13 -14 6 -3 2 -6 -10 -6 -13 -1 -23 5 -23 12 0 19 12
29 28 22 7 -3 18 -5 23 -5z m3697 -89 c-3 -26 -4 -26 -85 -26 l-83 0 0 26 0
27 85 -1 86 -1 -3 -25z m235 20 c5 0 7 -11 5 -23 -3 -22 -8 -23 -91 -25 -85
-1 -88 -1 -85 20 2 18 12 23 53 28 43 5 84 5 118 0z m-3257 -52 c19 -22 19
-22 -3 -8 -13 8 -23 17 -23 21 0 12 6 9 26 -13z m2164 11 c0 -5 -5 -10 -11
-10 -5 0 -7 5 -4 10 3 6 8 10 11 10 2 0 4 -4 4 -10z m45 0 c3 -5 2 -10 -4 -10
-5 0 -13 5 -16 10 -3 6 -2 10 4 10 5 0 13 -4 16 -10z m1193 -18 c13 -7 27 -10
32 -7 6 4 10 -3 10 -15 0 -12 -4 -18 -11 -15 -6 4 -9 0 -7 -11 2 -16 -3 -19
-32 -19 -19 0 -33 4 -32 9 2 5 -3 13 -12 18 -20 11 -21 28 0 28 8 0 12 5 9 10
-8 13 5 35 14 24 3 -5 16 -15 29 -22z m17 17 c11 -17 -1 -21 -15 -4 -8 9 -8
15 -2 15 6 0 14 -5 17 -11z m-3465 -3 c0 -3 -4 -8 -10 -11 -5 -3 -10 -1 -10 4
0 6 5 11 10 11 6 0 10 -2 10 -4z m27 -22 c-3 -3 -12 -4 -19 -1 -8 3 -5 6 6 6
11 1 17 -2 13 -5z m2820 -10 c-3 -3 -12 -4 -19 -1 -8 3 -5 6 6 6 11 1 17 -2
13 -5z m128 -24 c3 -5 -3 -10 -14 -10 -12 0 -21 5 -21 10 0 6 6 10 14 10 8 0
18 -4 21 -10z m40 0 c-3 -5 -11 -10 -16 -10 -6 0 -7 5 -4 10 3 6 11 10 16 10
6 0 7 -4 4 -10z m35 0 c0 -5 -4 -10 -10 -10 -5 0 -10 5 -10 10 0 6 5 10 10 10
6 0 10 -4 10 -10z m-2012 -7 c-21 -2 -57 -2 -80 0 -24 2 -7 4 37 4 44 0 63 -2
43 -4z m405 0 c-68 -2 -178 -2 -245 0 -68 1 -13 3 122 3 135 0 190 -2 123 -3z
m580 -40 c-13 -2 -33 -2 -45 0 -13 2 -3 4 22 4 25 0 35 -2 23 -4z m67 0 c-14
-3 -43 -21 -65 -41 l-39 -37 34 42 c27 32 42 41 65 41 26 -1 27 -1 5 -5z m79
4 c-2 -1 -12 -9 -22 -16 -15 -12 -17 -12 -11 3 3 9 13 16 22 16 8 0 13 -1 11
-3z m44 -4 c-7 -2 -19 -2 -25 0 -7 3 -2 5 12 5 14 0 19 -2 13 -5z m295 1 c-9
-8 -278 -10 -278 -1 0 4 64 7 142 7 78 0 139 -2 136 -6z m-658 -17 c0 -2 -10
-12 -22 -23 l-23 -19 19 23 c18 21 26 27 26 19z m589 0 c-2 -2 -21 -13 -41
-25 -27 -15 -35 -17 -31 -6 4 10 0 13 -13 8 -16 -5 -16 -4 -4 5 8 6 22 8 30 6
8 -2 22 0 30 5 13 9 39 15 29 7z m-1664 -21 c18 -13 18 -14 -2 -24 -23 -13
-33 -7 -33 20 0 22 10 23 35 4z m1345 10 c0 -3 -15 -14 -32 -26 l-33 -22 30
26 c31 27 35 29 35 22z m80 -1 c0 -2 -10 -9 -22 -15 -22 -11 -22 -10 -4 4 21
17 26 19 26 11z m90 -10 c-14 -8 -29 -14 -35 -14 -5 0 1 6 15 14 14 8 30 14
35 14 6 0 -1 -6 -15 -14z m219 -1 c-30 -17 -39 -17 -39 -1 0 7 14 12 31 13 32
1 32 1 8 -12z m-1599 -9 c-7 -8 -17 -15 -22 -15 -11 0 14 29 26 30 5 0 3 -7
-4 -15z m54 0 c-4 -8 -15 -15 -25 -15 -12 0 -16 5 -13 15 4 8 15 15 25 15 12
0 16 -5 13 -15z m30 0 c-4 -8 -11 -15 -16 -15 -6 0 -5 6 2 15 7 8 14 15 16 15
2 0 1 -7 -2 -15z m58 3 c-14 -14 -42 -19 -42 -9 0 12 8 17 31 18 16 2 19 -1
11 -9z m78 8 c0 -2 -7 -9 -15 -16 -13 -11 -14 -10 -9 4 5 14 24 23 24 12z m53
-12 c-2 -7 -13 -12 -23 -11 -13 1 -16 5 -10 12 13 16 39 15 33 -1z m47 1 c-7
-8 -19 -15 -27 -15 -13 0 -13 3 -3 15 7 8 19 15 27 15 13 0 13 -3 3 -15z m88
3 c-4 -12 -38 -21 -38 -9 0 12 12 21 28 21 7 0 12 -5 10 -12z m42 -3 c-7 -8
-17 -15 -22 -15 -6 0 -5 7 2 15 7 8 17 15 22 15 6 0 5 -7 -2 -15z m66 6 c-3
-5 -15 -11 -26 -14 -17 -4 -19 -3 -9 9 12 15 44 20 35 5z m54 -3 c0 -11 -29
-23 -36 -15 -3 3 -4 10 0 15 7 11 36 11 36 0z m50 2 c0 -12 -28 -25 -36 -17
-9 9 6 27 22 27 8 0 14 -5 14 -10z m72 -12 c-7 -7 -12 -8 -12 -2 0 14 12 26
19 19 2 -3 -1 -11 -7 -17z m44 7 c-8 -8 -18 -15 -22 -15 -3 0 -1 7 6 15 7 8
17 15 22 15 5 0 3 -7 -6 -15z m1614 11 c0 -2 -7 -6 -15 -10 -8 -3 -15 -1 -15
4 0 6 7 10 15 10 8 0 15 -2 15 -4z m215 -6 c3 -5 1 -10 -4 -10 -6 0 -11 5 -11
10 0 6 2 10 4 10 3 0 8 -4 11 -10z m-1915 -10 c0 -5 -5 -10 -11 -10 -5 0 -7 5
-4 10 3 6 8 10 11 10 2 0 4 -4 4 -10z m870 0 c-8 -5 -19 -10 -25 -10 -5 0 -3
5 5 10 8 5 20 10 25 10 6 0 3 -5 -5 -10z m-280 -5 c0 -2 -10 -9 -22 -15 -22
-11 -22 -10 -4 4 21 17 26 19 26 11z m150 -5 c-8 -5 -19 -10 -25 -10 -5 0 -3
5 5 10 8 5 20 10 25 10 6 0 3 -5 -5 -10z m197 -8 c-21 -10 -35 -22 -32 -29 2
-7 -2 -13 -10 -13 -12 0 -12 5 -3 25 6 13 15 22 19 19 5 -3 17 0 26 5 10 6 23
10 28 10 6 -1 -7 -8 -28 -17z m-1952 -12 c10 -11 16 -20 13 -20 -3 0 -13 9
-23 20 -10 11 -16 20 -13 20 3 0 13 -9 23 -20z m1238 -5 c-10 -13 -25 -27 -33
-30 -8 -4 -2 8 14 24 36 37 43 40 19 6z m602 15 c-3 -5 -14 -10 -23 -9 -14 0
-13 2 3 9 27 11 27 11 20 0z m-517 -48 c13 -27 15 -38 6 -27 -23 29 -46 75
-37 75 5 -1 18 -22 31 -48z m182 44 c0 -2 -8 -10 -17 -17 -16 -13 -17 -12 -4
4 13 16 21 21 21 13z m150 -1 c0 -2 -18 -14 -40 -25 -22 -11 -40 -18 -40 -15
0 2 17 13 38 24 42 23 42 23 42 16z m59 1 c-2 -2 -15 -9 -29 -15 -24 -11 -24
-11 -6 3 16 13 49 24 35 12z m1143 -24 c-1 -8 -4 -26 -6 -41 -5 -41 -14 -51
-46 -51 -33 0 -45 13 -34 38 4 9 6 25 5 36 -3 24 17 37 54 34 19 -2 29 -8 27
-16z m126 -9 c2 -13 -1 -23 -7 -23 -6 0 -6 -11 -1 -30 5 -16 5 -29 2 -28 -4 1
-15 -2 -24 -6 -30 -13 -53 -2 -56 27 -2 15 1 27 6 27 6 0 8 9 5 21 -7 25 12
40 47 37 17 -2 26 -10 28 -25z m-1568 13 c0 -2 -8 -10 -17 -17 -16 -13 -17
-12 -4 4 13 16 21 21 21 13z m320 -5 c0 -6 -4 -12 -8 -15 -5 -3 -9 1 -9 9 0 8
4 15 9 15 4 0 8 -4 8 -9z m68 -14 c-7 -7 -21 -21 -31 -32 -15 -16 -14 -12 3
17 12 21 26 35 32 32 5 -4 4 -11 -4 -17z m27 -7 c-9 -16 -17 -30 -19 -30 -3 0
1 14 7 30 6 17 15 30 19 30 5 0 2 -13 -7 -30z m110 1 c-21 -42 -35 -47 -16 -6
9 19 19 34 24 35 4 0 1 -13 -8 -29z m-649 -13 l29 -33 -35 30 c-19 17 -37 31
-39 33 -2 1 0 2 5 2 6 0 23 -15 40 -32z m79 22 c3 -6 -1 -7 -9 -4 -18 7 -21
14 -7 14 6 0 13 -4 16 -10z m90 0 c-3 -5 -20 -19 -38 -30 -32 -22 -32 -22 3 9
37 32 45 37 35 21z m65 6 c0 -2 -18 -15 -40 -30 -22 -14 -40 -24 -40 -22 0 5
71 56 77 56 2 0 3 -2 3 -4z m109 -23 c-61 -18 -72 -15 -25 7 22 10 46 16 54
12 9 -3 -2 -10 -29 -19z m-350 -30 c2 -2 0 -3 -6 -3 -6 0 -21 9 -34 21 l-24
20 30 -17 c17 -10 32 -19 34 -21z m261 22 c0 -2 -10 -9 -22 -15 -22 -11 -22
-10 -4 4 21 17 26 19 26 11z m333 -20 c-3 -9 -8 -14 -10 -11 -3 3 -2 9 2 15 9
16 15 13 8 -4z m887 -177 c0 -4 -4 -8 -8 -8 -4 0 -8 -9 -8 -20 0 -11 6 -20 14
-20 7 0 10 5 7 10 -3 6 -1 10 4 10 6 0 11 -7 11 -15 0 -9 -9 -15 -25 -15 -22
0 -25 4 -25 33 0 23 5 34 15 34 8 0 15 -4 15 -9z m50 -25 c0 -18 -4 -33 -10
-33 -5 0 -10 14 -10 31 0 17 -4 28 -10 24 -5 -3 -10 -2 -10 4 0 5 9 9 20 8 16
-1 20 -8 20 -34z m-13 -88 c0 -8 -4 -15 -9 -15 -4 0 -8 7 -8 15 0 8 4 15 8 15
5 0 9 -7 9 -15z m-2274 -12 c-7 -2 -19 -2 -25 0 -7 3 -2 5 12 5 14 0 19 -2 13
-5z m17 -153 c41 -57 3 -94 -44 -43 -29 31 -32 43 -14 61 19 19 35 14 58 -18z
m1298 8 c4 -22 -34 -78 -53 -78 -8 0 -19 9 -25 20 -8 16 -6 26 12 50 24 34 60
38 66 8z m-975 -35 c-7 -2 -19 -2 -25 0 -7 3 -2 5 12 5 14 0 19 -2 13 -5z
m395 0 c-10 -2 -18 -8 -18 -13 0 -13 40 -19 69 -9 16 6 82 6 166 2 110 -6 139
-11 143 -23 4 -12 2 -13 -9 -2 -16 15 -229 17 -229 2 0 -6 33 -10 79 -10 l79
0 5 -32 c3 -24 -1 -39 -14 -54 -27 -29 -24 -41 11 -49 l30 -7 0 -422 0 -422
-60 -12 c-33 -7 -60 -17 -60 -21 0 -5 -3 -22 -6 -38 -10 -51 54 -87 86 -48 9
10 9 15 1 15 -6 0 -11 7 -11 16 0 9 -5 12 -12 8 -6 -4 -17 1 -25 11 -11 17
-13 17 -13 2 0 -9 12 -23 28 -31 24 -13 25 -15 8 -22 -22 -9 -46 18 -46 52 0
27 24 38 41 18 6 -8 19 -13 28 -12 9 2 17 -4 17 -12 1 -8 3 -17 4 -20 5 -13 7
-56 3 -67 -8 -19 -93 -17 -93 2 0 8 -4 15 -10 15 -5 0 -7 -7 -4 -15 5 -13 -10
-15 -102 -14 -60 0 -118 4 -129 9 -22 10 -13 13 28 10 15 -1 27 2 27 7 0 18
-25 33 -52 33 -27 0 -28 -2 -28 -45 0 -33 -5 -47 -16 -52 -21 -8 -34 14 -34
60 l0 38 -42 -3 c-33 -2 -44 -8 -46 -22 -3 -16 1 -18 27 -14 17 2 31 1 31 -3
0 -23 -115 -27 -124 -4 -3 8 -10 15 -15 15 -6 0 -8 -7 -5 -15 5 -13 -8 -15
-85 -15 -54 0 -91 4 -91 10 0 6 -7 10 -15 10 -8 0 -15 9 -15 20 0 23 3 24 30
8 13 -9 27 -9 47 -2 24 8 28 15 28 49 0 22 4 43 9 47 6 4 -3 9 -20 13 -16 4
-39 11 -52 16 l-24 9 4 421 c2 333 6 421 16 428 10 6 7 15 -12 38 -28 33 -26
62 3 64 12 0 11 2 -4 8 -14 6 -22 4 -26 -7 -3 -9 -8 -11 -12 -6 -3 6 -2 16 3
24 12 20 181 15 193 -6 9 -17 43 -19 53 -3 4 8 -1 9 -16 4 -24 -8 -40 7 -40
38 0 13 9 17 41 17 22 0 49 -5 59 -10 14 -7 22 -7 31 3 8 9 32 11 75 9 34 -2
70 1 80 7 11 6 26 10 34 10 11 -1 10 -3 -2 -6z m215 0 c-7 -2 -19 -2 -25 0 -7
3 -2 5 12 5 14 0 19 -2 13 -5z m-543 -23 c0 -6 -35 -10 -87 -9 -58 1 -78 4
-58 8 48 12 145 12 145 1z m-894 -37 c-11 -11 -19 6 -11 24 8 17 8 17 12 0 3
-10 2 -21 -1 -24z m694 5 c0 -13 3 -34 6 -48 l6 -25 -21 24 c-21 23 -27 52
-14 64 13 13 23 7 23 -15z m1977 16 c-3 -3 -12 -4 -19 -1 -8 3 -5 6 6 6 11 1
17 -2 13 -5z m-2425 -100 c-6 -30 6 -31 18 -1 6 14 9 -60 7 -220 -2 -232 -3
-242 -19 -220 -16 20 -17 50 -17 282 1 143 5 243 9 222 4 -21 5 -49 2 -63z
m1288 76 c0 -5 -4 -10 -10 -10 -5 0 -10 5 -10 10 0 6 5 10 10 10 6 0 10 -4 10
-10z m80 -432 c0 -227 -5 -451 -10 -498 -5 -47 -10 -86 -10 -87 0 -2 -6 -3
-14 -3 -15 0 -29 37 -16 42 12 5 20 201 21 525 0 191 4 295 11 299 7 5 8 36 4
88 -4 57 -3 76 4 64 7 -11 10 -166 10 -430z m-2748 260 c67 -80 38 -54 -62 55
-53 58 -69 78 -36 47 32 -30 76 -76 98 -102z m1872 76 c4 -9 4 -19 2 -21 -8
-8 -26 8 -26 23 0 19 16 18 24 -2z m1994 7 c9 -5 12 -29 10 -82 l-3 -74 -70 0
-70 0 -3 69 c-2 38 -1 75 2 83 6 15 112 19 134 4z m-2725 -436 c-1 -198 -3
-421 -4 -495 0 -93 -3 -126 -9 -106 -5 16 -7 88 -5 160 3 72 5 293 6 491 1
198 5 349 8 335 4 -13 6 -187 4 -385z m-1072 278 c13 -16 12 -17 -3 -4 -10 7
-18 15 -18 17 0 8 8 3 21 -13z m89 -88 c35 -36 62 -65 59 -65 -2 0 -34 29 -69
65 -35 36 -62 65 -59 65 2 0 34 -29 69 -65z m-146 39 c9 -22 2 -27 -24 -19
-17 5 -19 10 -9 21 15 18 25 18 33 -2z m36 -65 c0 15 25 14 38 -2 9 -10 5 -13
-17 -15 -17 -1 -34 5 -42 15 -13 16 -12 17 4 4 11 -9 17 -10 17 -2z m78 -42
c9 -10 3 -12 -26 -8 -34 4 -35 5 -12 12 14 4 26 7 26 8 1 1 6 -5 12 -12z m61
-62 c25 -26 30 -35 17 -35 -11 0 -15 5 -10 13 6 10 4 10 -7 0 -16 -15 -33 -17
-24 -3 3 6 1 10 -5 10 -13 0 -45 30 -33 31 4 0 -1 4 -12 9 -17 7 -16 9 10 9
22 1 40 -9 64 -34z m97 3 l29 -33 -32 29 c-31 28 -38 36 -30 36 2 0 16 -15 33
-32z m-38 -61 c9 -10 3 -12 -26 -8 -34 4 -35 5 -12 12 14 4 26 7 26 8 1 1 6
-5 12 -12z m1138 -54 c14 -22 29 -113 19 -113 -2 0 -11 12 -20 27 -15 22 -31
113 -20 113 1 0 11 -12 21 -27z m1834 11 c0 -6 -19 -11 -45 -11 -30 0 -45 5
-45 13 0 10 14 13 45 12 25 -1 45 -7 45 -14z m150 1 c0 -5 -20 -11 -45 -11
-29 -1 -45 3 -45 11 0 7 16 11 45 11 25 -1 45 -5 45 -11z m148 0 c1 -6 -18
-11 -43 -11 -29 -1 -45 3 -45 10 0 15 84 15 88 1z m152 -1 c0 -6 -19 -11 -45
-11 -29 0 -45 5 -45 12 0 8 16 12 45 11 25 0 45 -5 45 -12z m-670 -4 c0 -5 -4
-10 -10 -10 -5 0 -10 5 -10 10 0 6 5 10 10 10 6 0 10 -4 10 -10z m0 -40 c0 -5
-4 -10 -10 -10 -5 0 -10 5 -10 10 0 6 5 10 10 10 6 0 10 -4 10 -10z m-2199
-97 c13 -16 12 -17 -3 -4 -17 13 -22 21 -14 21 2 0 10 -8 17 -17z m584 -19
c10 -15 18 -47 20 -71 l2 -43 -23 32 c-15 20 -24 46 -24 70 0 21 2 38 4 38 2
0 11 -12 21 -26z m0 -151 c10 -15 19 -45 21 -68 l3 -40 -25 30 c-16 20 -24 43
-24 68 0 20 2 37 4 37 2 0 12 -12 21 -27z m2630 -62 c3 -5 1 -12 -5 -16 -5 -3
-10 1 -10 9 0 18 6 21 15 7z m-275 -11 c0 -5 -9 -10 -21 -10 -11 0 -17 5 -14
10 3 6 13 10 21 10 8 0 14 -4 14 -10z m180 -26 c0 -2 -9 -4 -20 -4 -11 0 -20
4 -20 9 0 5 9 7 20 4 11 -3 20 -7 20 -9z m120 -4 c0 -5 -11 -10 -24 -10 -14 0
-28 5 -31 10 -4 6 7 10 24 10 17 0 31 -4 31 -10z m-1270 -20 c0 -11 -7 -20
-15 -20 -8 0 -15 9 -15 20 0 11 7 20 15 20 8 0 15 -9 15 -20z m970 10 c0 -5
-7 -10 -15 -10 -8 0 -15 5 -15 10 0 6 7 10 15 10 8 0 15 -4 15 -10z m-2335
-103 l1 -39 -23 26 c-17 20 -23 39 -23 74 l0 47 22 -34 c12 -19 22 -52 23 -74z
m485 94 c0 -12 -20 -25 -27 -18 -7 7 6 27 18 27 5 0 9 -4 9 -9z m987 3 c-3 -3
-12 -4 -19 -1 -8 3 -5 6 6 6 11 1 17 -2 13 -5z m-207 -24 c0 -11 -4 -20 -10
-20 -5 0 -14 9 -20 20 -9 17 -8 20 10 20 13 0 20 -7 20 -20z m-738 -4 c6 4 5
-2 -1 -15 -10 -17 -15 -19 -31 -9 -10 7 -16 16 -13 21 3 5 9 3 14 -4 7 -11 9
-9 10 6 0 11 3 14 6 7 2 -6 9 -9 15 -6z m693 4 c3 -5 2 -10 -4 -10 -5 0 -13 5
-16 10 -3 6 -2 10 4 10 5 0 13 -4 16 -10z m1435 0 c0 -5 -2 -10 -4 -10 -3 0
-8 5 -11 10 -3 6 -1 10 4 10 6 0 11 -4 11 -10z m-296 -12 c-3 -4 -14 -8 -24
-8 -10 0 -21 4 -24 8 -3 5 8 9 24 9 16 0 27 -4 24 -9z m-1024 -70 c0 -40 5
-90 11 -111 13 -48 5 -74 -31 -92 -51 -26 -80 -19 -127 31 -23 26 -40 51 -36
57 3 6 22 -8 42 -31 41 -48 84 -61 115 -37 18 14 19 20 8 73 -18 85 -16 182 3
182 12 0 15 -15 15 -72z m1324 19 c3 -21 0 -39 -6 -43 -7 -5 -9 -2 -5 9 3 9 3
19 -2 21 -6 4 -7 29 -2 55 3 13 11 -10 15 -42z m-2122 15 c4 7 8 8 8 3 0 -15
-21 -35 -37 -35 -7 0 -17 9 -23 20 -10 18 -9 19 16 9 21 -7 29 -7 36 3z m2033
-12 c4 -6 -7 -10 -24 -10 -17 0 -31 5 -31 10 0 6 11 10 24 10 14 0 28 -4 31
-10z m5 -40 c0 -5 -13 -10 -30 -10 -16 0 -30 5 -30 10 0 6 14 10 30 10 17 0
30 -4 30 -10z m-2580 -150 c0 -69 -9 -100 -31 -100 -4 0 -7 53 -8 118 l-1 117
20 -30 c15 -23 20 -47 20 -105z m2660 110 c0 -5 -2 -10 -4 -10 -3 0 -8 5 -11
10 -3 6 -1 10 4 10 6 0 11 -4 11 -10z m-1146 -12 c43 -19 46 -68 5 -68 -48 0
-79 38 -53 65 18 18 17 18 48 3z m-871 -5 c-7 -2 -21 -2 -30 0 -10 3 -4 5 12
5 17 0 24 -2 18 -5z m493 -2 c-5 -8 -56 -3 -56 5 0 2 14 4 31 4 16 0 28 -4 25
-9z m-1396 -72 c0 -44 -4 -68 -10 -64 -18 11 -12 135 7 135 2 0 3 -32 3 -71z
m2888 64 c-10 -2 -26 -2 -35 0 -10 3 -2 5 17 5 19 0 27 -2 18 -5z m-18 -23 c0
-5 -6 -10 -14 -10 -8 0 -18 5 -21 10 -3 6 3 10 14 10 12 0 21 -4 21 -10z
m-2227 -37 c-7 -2 -19 -2 -25 0 -7 3 -2 5 12 5 14 0 19 -2 13 -5z m2177 -3 c0
-5 -7 -10 -15 -10 -8 0 -15 5 -15 10 0 6 7 10 15 10 8 0 15 -4 15 -10z m80 0
c0 -5 -9 -10 -20 -10 -11 0 -20 5 -20 10 0 6 9 10 20 10 11 0 20 -4 20 -10z
m-2188 -33 c11 -9 16 -28 16 -60 l0 -47 -54 0 -54 0 0 48 c0 39 4 49 23 58 30
16 49 16 69 1z m222 6 c4 -5 13 -8 19 -8 7 0 13 -21 15 -52 l3 -53 -55 0 -56
0 0 49 c0 45 3 50 28 59 35 13 37 13 46 5z m1748 -45 c-11 -11 -32 -3 -32 12
0 12 34 18 39 7 2 -5 -1 -13 -7 -19z m83 21 c8 -12 15 -270 8 -283 -3 -4 -9
-2 -14 5 -6 9 -9 -8 -10 -46 l-1 -60 -10 43 c-5 23 -13 42 -19 42 -11 0 -12
37 0 42 4 2 12 13 15 26 5 15 3 24 -8 28 -9 3 -16 12 -16 19 0 7 -10 11 -22
10 -13 -1 -15 0 -5 2 9 2 17 8 17 13 0 5 7 7 15 4 16 -6 21 11 6 20 -4 3 -5
24 -1 46 4 22 4 40 0 40 -3 0 -5 14 -2 30 4 30 33 42 47 19z m93 -6 c-10 -2
-26 -2 -35 0 -10 3 -2 5 17 5 19 0 27 -2 18 -5z m-3963 -103 l70 0 82 -82 c84
-84 94 -97 69 -94 -7 0 -28 -17 -46 -39 l-32 -40 44 -6 c41 -6 40 -6 -17 -7
l-60 -2 -125 125 c-107 107 -124 129 -125 157 0 18 -7 44 -14 58 -9 17 2 10
36 -22 49 -48 49 -48 118 -48z m2349 44 c10 -4 16 -18 16 -40 0 -32 -2 -34
-34 -34 -36 0 -50 17 -39 48 11 29 29 37 57 26z m104 -37 l3 -38 -38 3 c-31 2
-39 7 -41 26 -6 40 5 54 40 50 30 -3 33 -6 36 -41z m-1349 -54 c-1 -43 -4 -68
-7 -55 -7 23 -3 132 4 132 2 0 4 -35 3 -77z m2818 45 c-3 -7 -5 -2 -5 12 0 14
2 19 5 13 2 -7 2 -19 0 -25z m123 12 c0 -11 -4 -20 -10 -20 -5 0 -10 9 -10 20
0 11 5 20 10 20 6 0 10 -9 10 -20z m-2650 -8 c0 -11 -7 -18 -19 -18 -16 0 -17
4 -10 18 5 10 14 18 19 18 6 0 10 -8 10 -18z m410 -2 c0 -5 -10 -10 -22 -9
-22 0 -22 1 -3 9 11 5 21 9 23 9 1 1 2 -3 2 -9z m230 0 c0 -5 -10 -10 -22 -9
-22 0 -22 1 -3 9 11 5 21 9 23 9 1 1 2 -3 2 -9z m543 3 c-7 -2 -19 -2 -25 0
-7 3 -2 5 12 5 14 0 19 -2 13 -5z m64 1 c-3 -3 -12 -4 -19 -1 -8 3 -5 6 6 6
11 1 17 -2 13 -5z m-557 -24 c0 -5 -5 -10 -11 -10 -5 0 -7 5 -4 10 3 6 8 10
11 10 2 0 4 -4 4 -10z m-390 -20 c0 -5 -4 -10 -10 -10 -5 0 -10 5 -10 10 0 6
5 10 10 10 6 0 10 -4 10 -10z m-330 -10 c0 -5 -10 -10 -22 -9 -22 0 -22 1 -3
9 11 5 21 9 23 9 1 1 2 -3 2 -9z m1037 -42 c-3 -8 -6 -5 -6 6 -1 11 2 17 5 13
3 -3 4 -12 1 -19z m173 2 c0 -5 -4 -10 -10 -10 -5 0 -10 5 -10 10 0 6 5 10 10
10 6 0 10 -4 10 -10z m-713 -22 c-3 -8 -6 -5 -6 6 -1 11 2 17 5 13 3 -3 4 -12
1 -19z m-134 -5 c-7 -2 -19 -2 -25 0 -7 3 -2 5 12 5 14 0 19 -2 13 -5z m210 0
c-7 -2 -19 -2 -25 0 -7 3 -2 5 12 5 14 0 19 -2 13 -5z m230 -24 c10 -36 -2
-49 -44 -49 -38 0 -39 1 -39 35 0 34 1 35 39 35 31 0 40 -4 44 -21z m472 -29
c3 -5 1 -10 -4 -10 -6 0 -11 5 -11 10 0 6 2 10 4 10 3 0 8 -4 11 -10z m255
-10 c0 -5 -9 -10 -20 -10 -11 0 -20 5 -20 10 0 6 9 10 20 10 11 0 20 -4 20
-10z m1030 -11 c0 -11 -4 -18 -10 -14 -5 3 -7 12 -3 20 7 21 13 19 13 -6z
m120 1 c0 -11 -4 -20 -10 -20 -5 0 -10 9 -10 20 0 11 5 20 10 20 6 0 10 -9 10
-20z m-2210 0 c0 -5 -9 -10 -20 -10 -11 0 -20 5 -20 10 0 6 9 10 20 10 11 0
20 -4 20 -10z m90 0 c0 -5 -9 -10 -20 -10 -11 0 -20 5 -20 10 0 6 9 10 20 10
11 0 20 -4 20 -10z m110 0 c0 -5 -8 -10 -17 -10 -15 0 -16 2 -3 10 19 12 20
12 20 0z m860 -19 c0 -5 -9 -7 -20 -4 -11 3 -20 7 -20 9 0 2 9 4 20 4 11 0 20
-4 20 -9z m924 -41 c-5 -5 -10 3 -11 18 -1 22 0 24 9 8 6 -10 6 -22 2 -26z
m-2490 -9 c24 -1 27 -3 16 -16 -10 -11 -28 -15 -66 -13 -30 2 -54 6 -54 10 0
12 30 25 53 22 12 -1 35 -3 51 -3z m195 0 c37 -1 42 -3 31 -16 -16 -20 -166
-22 -154 -2 5 8 2 7 -9 -2 -21 -17 -33 -9 -14 10 8 8 31 13 58 12 24 -1 64 -2
88 -2z m2451 -31 c0 -5 -11 -10 -25 -10 -14 0 -25 5 -25 10 0 6 11 10 25 10
14 0 25 -4 25 -10z m-1680 -60 c19 -6 53 -13 74 -15 41 -5 59 -15 39 -22 -7
-3 -13 -11 -13 -19 0 -24 -43 -16 -68 14 -20 24 -22 25 -17 5 8 -29 -19 -43
-87 -43 l-53 0 0 45 0 45 45 0 c25 0 61 -5 80 -10z m740 -20 c0 -5 -2 -10 -4
-10 -3 0 -8 5 -11 10 -3 6 -1 10 4 10 6 0 11 -4 11 -10z m795 0 c18 -8 17 -9
-8 -9 -16 -1 -38 -6 -50 -12 -21 -10 -21 -9 2 10 26 23 27 23 56 11z m-455
-24 c0 -8 6 -17 13 -19 6 -3 2 -6 -10 -6 -17 -1 -23 5 -23 19 0 11 5 20 10 20
6 0 10 -6 10 -14z m330 10 c0 -2 -8 -10 -17 -17 -16 -13 -17 -12 -4 4 13 16
21 21 21 13z m-245 -26 c3 -6 -4 -10 -17 -10 -18 0 -20 2 -8 10 19 12 18 12
25 0z m530 -38 c1 -44 -8 -62 -21 -41 -4 8 -9 7 -15 -2 -7 -11 -10 -9 -15 9
-4 12 -10 22 -16 22 -5 0 -4 9 2 20 6 11 8 20 5 20 -4 0 -4 4 -1 8 2 4 17 8
32 7 26 0 28 -3 29 -43z m-957 23 c-10 -8 -48 -25 -48 -21 0 12 33 36 41 30 6
-3 9 -7 7 -9z m-1058 -14 c0 -18 -25 -26 -82 -26 -68 0 -61 18 8 21 25 1 48 5
52 8 9 9 22 7 22 -3z m63 -4 c3 4 20 7 39 6 18 -1 42 -2 53 -2 19 -1 19 -1 0
-14 -21 -15 -102 -17 -122 -4 -8 5 -13 4 -13 -2 0 -6 -5 -11 -12 -11 -6 0 -3
9 7 20 13 14 21 17 31 9 7 -5 14 -6 17 -2z m1974 -9 c-3 -8 -6 -5 -6 6 -1 11
2 17 5 13 3 -3 4 -12 1 -19z m-821 -38 c8 7 66 14 101 11 14 -1 6 -31 -8 -31
-4 0 -6 8 -2 18 6 16 5 16 -14 0 -23 -21 -48 -24 -37 -5 6 9 4 9 -7 1 -15 -12
-42 -12 -71 1 -11 4 -18 3 -18 -4 0 -6 -9 -11 -20 -11 -25 0 -26 16 -3 29 12
6 26 5 44 -4 15 -8 30 -10 35 -5z m664 15 c0 -10 -45 -23 -55 -17 -5 3 1 9 15
13 33 9 40 10 40 4z m-400 -16 c0 -15 -33 -24 -38 -11 -2 7 -9 9 -15 5 -22
-14 -49 -14 -41 -1 6 10 4 11 -7 1 -19 -19 -45 -17 -30 1 13 15 131 20 131 5z
m36 -4 c-25 -19 -37 -19 -30 0 4 8 16 15 28 15 21 -1 21 -1 2 -15z m77 0 c1
-5 -6 -11 -15 -13 -11 -2 -18 3 -18 13 0 17 30 18 33 0z m313 -72 c-15 -15
-21 8 -12 47 l11 45 3 -44 c2 -23 1 -45 -2 -48z m-3196 -39 c0 -2 -9 -4 -21
-4 -11 0 -18 4 -14 10 5 8 35 3 35 -6z m-57 -1 c-7 -2 -21 -2 -30 0 -10 3 -4
5 12 5 17 0 24 -2 18 -5z m72 -73 c4 -6 -1 -7 -11 -3 -13 5 -15 3 -9 -7 5 -9
4 -11 -4 -6 -6 4 -9 12 -6 17 8 12 22 12 30 -1z m1455 6 c0 -2 -7 -7 -16 -10
-8 -3 -12 -2 -9 4 6 10 25 14 25 6z m-40 -16 c0 -7 -240 -10 -700 -10 -460 0
-700 3 -700 10 0 7 240 10 700 10 460 0 700 -3 700 -10z m708 -25 c-2 -3 -18
-6 -34 -7 -16 -1 -36 -6 -44 -12 -13 -10 -13 -9 -1 7 8 10 27 17 49 17 19 0
33 -2 30 -5z m-1908 -45 c0 -11 -7 -20 -15 -20 -8 0 -15 9 -15 20 0 11 7 20
15 20 8 0 15 -9 15 -20z m1870 -1 c0 -5 -4 -9 -10 -9 -5 0 -10 7 -10 16 0 8 5
12 10 9 6 -3 10 -10 10 -16z m1060 -4 c0 -14 -4 -25 -10 -25 -5 0 -10 11 -10
25 0 14 5 25 10 25 6 0 10 -11 10 -25z m-3146 -53 c2 -4 -4 -8 -14 -8 -10 0
-16 4 -14 8 3 4 9 8 14 8 5 0 11 -4 14 -8z m1404 -2 c6 0 12 -4 12 -10 0 -7
-240 -10 -700 -10 -633 0 -739 4 -687 23 6 3 316 3 687 0 371 -2 681 -4 688
-3z m52 -1 c0 -5 -4 -7 -10 -4 -5 3 -10 1 -10 -6 0 -7 -3 -10 -6 -6 -8 7 4 27
17 27 5 0 9 -5 9 -11z m1303 -96 c-122 -2 -324 -2 -450 0 -125 1 -25 2 222 2
248 0 350 -1 228 -2z m264 1 c-3 -3 -12 -4 -19 -1 -8 3 -5 6 6 6 11 1 17 -2
13 -5z m60 0 c-3 -3 -12 -4 -19 -1 -8 3 -5 6 6 6 11 1 17 -2 13 -5z m61 -131
c-2 -140 -5 -123 -10 45 -2 50 0 92 5 92 4 0 6 -62 5 -137z m-3317 107 c5 0 9
-7 9 -15 0 -9 -9 -15 -25 -15 -19 0 -25 5 -25 21 0 15 4 19 16 15 9 -3 20 -6
25 -6z m3189 -32 c0 -11 -134 -148 -145 -148 -3 0 -5 7 -5 15 0 19 -24 20 -39
2 -6 -8 -13 -31 -17 -53 -8 -55 -14 -55 -14 -2 0 31 -5 48 -15 52 -12 4 -14
-3 -10 -42 l5 -47 -13 34 c-12 31 -47 53 -47 30 0 -6 -4 -8 -9 -5 -5 4 -7 -13
-5 -36 l4 -43 -13 34 c-11 27 -15 31 -25 19 -8 -11 -9 -24 -1 -52 16 -59 5
-52 -14 8 -16 50 -20 54 -44 52 -23 -3 -32 -14 -54 -62 -32 -68 -36 -68 -13 0
23 66 9 70 -21 5 -23 -50 -26 -31 -4 29 8 20 7 21 -11 12 -32 -17 -24 -3 40
65 36 38 60 73 60 86 0 13 7 31 17 41 14 16 35 18 205 18 140 0 188 -3 188
-12z m-470 -32 c0 -2 -8 -10 -17 -17 -16 -13 -17 -12 -4 4 13 16 21 21 21 13z
m-8 -48 c-7 -7 -12 -8 -12 -2 0 14 12 26 19 19 2 -3 -1 -11 -7 -17z m-146
-113 c-38 -35 -46 -31 -11 5 16 16 31 28 33 25 3 -3 -7 -16 -22 -30z m64 -71
c-17 -41 -19 -44 -14 -14 7 37 23 74 30 68 2 -2 -5 -26 -16 -54z m140 -2 c0
-15 -2 -15 -10 -2 -5 8 -10 10 -10 4 0 -5 -7 -19 -15 -30 -12 -15 -12 -11 1
18 17 37 34 42 34 10z m-287 -7 c-3 -9 -8 -14 -10 -11 -3 3 -2 9 2 15 9 16 15
13 8 -4z m-794 -161 c-94 -93 -175 -167 -189 -170 -32 -7 -130 -11 -130 -4 0
2 33 38 72 80 l73 75 -80 -77 c-44 -43 -85 -78 -90 -78 -5 0 66 76 159 169
l169 169 90 0 90 0 -164 -164z m377 124 l29 -33 -32 29 c-31 28 -38 36 -30 36
2 0 16 -15 33 -32z m344 -38 c0 -5 -5 -10 -11 -10 -5 0 -7 5 -4 10 3 6 8 10
11 10 2 0 4 -4 4 -10z m273 -40 c-5 -19 -23 -39 -23 -25 0 9 20 45 24 45 2 0
2 -9 -1 -20z m-618 -240 c-27 -27 -51 -47 -54 -45 -3 3 17 28 44 55 27 27 51
47 54 45 3 -3 -17 -28 -44 -55z m-45 -106 c0 -27 -4 -43 -10 -39 -17 11 -11
85 7 85 2 0 3 -21 3 -46z m-90 6 c0 -5 -5 -10 -11 -10 -5 0 -7 5 -4 10 3 6 8
10 11 10 2 0 4 -4 4 -10z m-13 -42 c-3 -8 -6 -5 -6 6 -1 11 2 17 5 13 3 -3 4
-12 1 -19z m-2337 -22 c0 -3 -4 -8 -10 -11 -5 -3 -10 -1 -10 4 0 6 5 11 10 11
6 0 10 -2 10 -4z m2437 -53 c-4 -17 -4 -17 -12 0 -4 9 -4 25 0 35 8 16 8 16
12 0 3 -10 3 -26 0 -35z m-2383 -7 c-5 -13 -9 -14 -14 -5 -11 16 0 43 12 31 5
-5 6 -17 2 -26z m-74 10 c0 -8 -4 -18 -10 -21 -5 -3 -10 3 -10 14 0 12 5 21
10 21 6 0 10 -6 10 -14z m40 0 c0 -8 -4 -18 -10 -21 -5 -3 -10 3 -10 14 0 12
5 21 10 21 6 0 10 -6 10 -14z m2416 -84 c-12 -12 -18 8 -10 35 l8 28 4 -28 c2
-16 1 -31 -2 -35z m-94 13 c3 -13 1 -22 -3 -19 -9 5 -13 44 -5 44 2 0 6 -11 8
-25z m-2178 -1 c21 -8 21 -43 0 -51 -20 -8 -49 21 -41 41 7 17 16 19 41 10z
m1826 -9 c0 -8 -6 -15 -14 -15 -17 0 -28 14 -19 24 12 12 33 6 33 -9z m-1950
-25 c0 -16 -6 -20 -30 -18 -21 2 -30 7 -30 20 0 13 8 18 30 18 23 0 30 -4 30
-20z m220 -4 c0 -2 -11 -6 -25 -8 -14 -3 -25 -1 -25 3 0 5 11 9 25 9 14 0 25
-2 25 -4z m-24 -44 c24 -4 24 -6 24 -111 l0 -106 -165 3 -165 3 0 110 0 110
141 -2 c77 -1 151 -4 165 -7z m1009 -144 c-83 -84 -131 -135 -107 -113 39 36
42 38 40 16 -4 -34 26 -51 49 -28 23 23 6 53 -28 49 -19 -2 3 24 91 113 l115
115 52 0 c29 0 53 -3 53 -7 0 -4 -60 -69 -132 -143 l-133 -135 148 145 c81 80
147 140 147 133 0 -6 -68 -76 -150 -156 l-150 -144 -87 -1 -86 -1 154 155 c84
85 158 154 164 154 5 0 -58 -69 -140 -152z m-1028 -234 c46 -12 36 -84 -12
-84 -44 0 -71 50 -43 78 13 13 23 14 55 6z m139 -14 c29 -25 -10 -76 -50 -66
-28 7 -41 35 -31 67 6 17 12 20 38 15 16 -3 36 -11 43 -16z m64 -26 c0 -8 -4
-12 -10 -9 -5 3 -10 10 -10 16 0 5 5 9 10 9 6 0 10 -7 10 -16z m40 0 c0 -8 -4
-12 -10 -9 -5 3 -10 10 -10 16 0 5 5 9 10 9 6 0 10 -7 10 -16z m34 1 c-4 -8
-8 -15 -10 -15 -2 0 -4 7 -4 15 0 8 4 15 10 15 5 0 7 -7 4 -15z m1856 -15 c0
-5 -4 -10 -10 -10 -5 0 -10 5 -10 10 0 6 5 10 10 10 6 0 10 -4 10 -10z m853
-74 c-74 -43 -114 -78 -108 -94 4 -12 1 -11 -15 3 -11 10 -20 15 -20 11 0 -4
-9 -2 -20 4 -11 6 -20 16 -20 22 0 6 10 3 22 -8 19 -17 21 -17 15 -1 -5 14 -3
16 12 8 14 -8 25 -3 52 25 31 32 70 51 109 53 8 0 -4 -10 -27 -23z m-2988 4
c30 0 39 -27 20 -56 -18 -28 -41 -31 -67 -7 -29 26 -22 80 10 68 7 -3 24 -5
37 -5z m126 0 c25 -14 25 -56 -1 -70 -39 -21 -87 32 -60 65 15 18 34 19 61 5z
m2592 3 c-7 -2 -19 -2 -25 0 -7 3 -2 5 12 5 14 0 19 -2 13 -5z m-2453 -18 c0
-10 -10 -15 -30 -15 -20 0 -30 5 -30 15 0 10 10 15 30 15 20 0 30 -5 30 -15z
m-440 -5 c0 6 5 10 11 8 6 -2 10 -7 9 -12 -1 -5 4 -12 11 -16 7 -5 9 -15 4
-26 -5 -11 -7 -23 -6 -27 2 -12 -41 2 -60 19 -9 8 -19 11 -22 7 -4 -3 -7 -1
-7 5 0 7 7 12 16 12 10 0 14 6 11 14 -8 20 4 28 20 15 10 -9 13 -8 13 1z
m3157 -26 c-67 -34 -79 -54 -33 -54 25 0 51 24 42 38 -3 5 6 14 19 20 35 16
33 -7 -4 -47 -25 -26 -35 -31 -58 -25 -31 8 -66 24 -61 29 20 19 128 75 143
74 11 0 -9 -15 -48 -35z m683 24 c0 -5 -5 -6 -11 -3 -6 4 -5 -2 2 -14 10 -14
15 -17 21 -8 5 9 8 7 8 -4 0 -8 -16 -23 -35 -32 -43 -21 -45 -21 -45 -3 0 8
-5 16 -12 18 -7 3 -8 9 -2 19 5 8 9 17 10 22 1 4 2 9 3 10 3 8 61 3 61 -5z
m-1210 -14 c0 -8 5 -12 10 -9 6 3 10 -2 10 -11 0 -10 -3 -15 -6 -12 -3 3 -17
-5 -31 -18 -25 -23 -46 -28 -43 -10 1 5 -3 12 -10 16 -7 4 -9 17 -4 33 5 23
12 27 40 27 24 0 34 -5 34 -16z m1220 -53 c0 -5 -7 -12 -16 -15 -14 -5 -15 -4
-4 9 14 17 20 19 20 6z m-3865 -11 c3 -5 2 -10 -4 -10 -5 0 -13 5 -16 10 -3 6
-2 10 4 10 5 0 13 -4 16 -10z m2650 0 c-3 -5 -11 -10 -16 -10 -6 0 -7 5 -4 10
3 6 11 10 16 10 6 0 7 -4 4 -10z m-2460 -14 c37 -16 41 -26 25 -57 -12 -22
-59 -26 -78 -7 -7 7 -12 21 -12 33 0 18 16 45 27 45 2 0 19 -7 38 -14z m144
-10 c12 -14 5 -46 -13 -58 -6 -4 -21 -8 -34 -8 -25 0 -49 39 -39 64 8 20 70
21 86 2z m1294 -23 c3 -4 3 -20 0 -36 l-5 -27 -103 0 c-102 0 -103 0 -109 25
-4 14 -4 29 -2 34 7 10 213 14 219 4z m1807 -13 c0 -5 -10 -10 -22 -9 -22 0
-22 1 -3 9 11 5 21 9 23 9 1 1 2 -3 2 -9z m-3094 -84 c3 -7 0 -25 -5 -39 -8
-21 -17 -27 -40 -27 -40 0 -56 29 -37 70 8 19 75 15 82 -4z m2814 15 c0 -5
-16 -11 -36 -13 -34 -4 -50 3 -37 16 10 9 73 7 73 -3z m-1830 -32 c0 -17 -8
-19 -85 -19 -64 0 -85 3 -85 13 0 22 7 24 90 24 72 1 80 -1 80 -18z m278 -1
c3 -16 -6 -18 -82 -18 -77 0 -86 2 -86 19 0 16 8 18 82 17 70 -1 83 -4 86 -18z
m-812 5 c-10 -10 -46 -11 -46 -1 0 4 12 8 27 8 14 0 23 -3 19 -7z m2309 -13
c3 -6 -1 -7 -9 -4 -18 7 -21 14 -7 14 6 0 13 -4 16 -10z"/>
<path d="M5946 5114 c-9 -23 -8 -24 24 -24 23 0 30 4 30 20 0 25 -45 28 -54 4z"/>
<path d="M5936 5064 c-9 -23 -8 -24 24 -24 23 0 30 4 30 20 0 25 -45 28 -54 4z"/>
<path d="M6076 5123 c-3 -3 -6 -13 -6 -20 0 -20 54 -13 58 7 3 16 -39 26 -52
13z"/>
<path d="M6066 5063 c-9 -22 -8 -23 24 -23 19 0 30 5 30 14 0 19 -48 27 -54 9z"/>
<path d="M4160 4540 c0 -5 9 -10 20 -10 26 0 25 -9 -8 -47 -21 -25 -37 -33
-74 -36 -25 -3 -52 -8 -58 -12 -9 -6 -9 -2 -1 14 7 12 9 26 6 31 -3 6 2 7 12
4 14 -4 12 -1 -6 15 -29 26 -53 27 -74 3 -26 -28 -21 -69 9 -89 24 -16 28 -16
58 1 29 15 50 17 175 10 145 -7 208 -8 318 -4 36 2 69 -2 77 -9 16 -13 42 -6
50 15 4 12 2 12 -14 4 -14 -8 -26 -8 -40 0 -29 16 -24 23 10 15 35 -8 51 15
30 40 -11 13 -10 14 6 8 17 -6 17 -5 5 10 -28 34 -84 11 -93 -38 -3 -19 -8
-20 -65 -17 -13 1 -29 14 -39 31 -18 31 -39 32 -29 2 5 -16 -4 -18 -76 -20
-104 -2 -115 2 -139 50 -13 25 -27 39 -40 39 -11 0 -20 -4 -20 -10z m-137 -61
c-6 -23 -10 -23 -28 -5 -16 16 -13 21 13 23 15 1 18 -3 15 -18z m597 11 c-13
-8 -12 -10 3 -10 10 0 15 -4 12 -10 -4 -6 -13 -5 -25 2 -14 9 -16 14 -7 20 7
4 17 8 22 8 6 0 3 -5 -5 -10z m-604 -68 c-4 -3 -14 2 -24 12 -16 18 -16 18 6
6 13 -6 21 -14 18 -18z"/>
<path d="M4223 4537 c3 -7 9 -11 15 -10 7 2 9 -4 5 -13 -9 -24 15 -34 89 -34
65 0 68 1 83 31 9 17 14 33 11 36 -3 3 -8 -2 -12 -11 -3 -9 -13 -16 -21 -16
-8 0 -12 3 -9 8 2 4 -21 6 -52 4 -30 -1 -63 0 -71 4 -28 12 -42 13 -38 1z
m111 -32 c-4 -8 -12 -15 -20 -15 -8 0 -14 7 -14 15 0 8 9 15 20 15 13 0 18 -5
14 -15z"/>
<path d="M4453 4543 c-7 -2 -13 -9 -13 -14 0 -4 7 -6 15 -3 8 4 17 -1 21 -10
4 -9 17 -16 33 -15 l26 1 -27 10 c-16 5 -28 16 -28 24 0 14 -6 16 -27 7z"/>
<path d="M4059 4321 c-25 -26 -29 -37 -29 -88 -1 -35 -6 -66 -15 -77 -8 -11
-15 -37 -15 -58 0 -30 5 -41 28 -55 60 -37 71 -88 25 -122 -16 -12 -34 -26
-40 -31 -18 -15 -16 -82 2 -106 9 -11 14 -42 15 -77 0 -47 4 -62 24 -82 34
-33 65 -37 304 -33 l212 3 26 26 c21 22 27 39 31 93 3 37 10 69 14 72 5 3 9
28 9 55 0 46 -2 51 -36 71 -32 19 -35 24 -32 62 2 33 9 44 35 61 29 18 32 25
33 67 0 26 -4 50 -10 53 -5 3 -10 31 -10 61 0 61 -11 90 -44 116 -19 16 -49
18 -259 18 l-239 0 -29 -29z m198 -183 c-3 -7 -5 -2 -5 12 0 14 2 19 5 13 2
-7 2 -19 0 -25z m30 0 c-3 -7 -5 -2 -5 12 0 14 2 19 5 13 2 -7 2 -19 0 -25z
m-50 7 c0 -8 -4 -15 -9 -15 -4 0 -8 7 -8 15 0 8 4 15 8 15 5 0 9 -7 9 -15z
m80 -7 c-3 -8 -6 -5 -6 6 -1 11 2 17 5 13 3 -3 4 -12 1 -19z m30 0 c-3 -8 -6
-5 -6 6 -1 11 2 17 5 13 3 -3 4 -12 1 -19z m30 0 c-3 -8 -6 -5 -6 6 -1 11 2
17 5 13 3 -3 4 -12 1 -19z m30 0 c-3 -8 -6 -5 -6 6 -1 11 2 17 5 13 3 -3 4
-12 1 -19z m-171 -43 c-4 -24 -16 -30 -16 -7 0 12 4 22 9 22 5 0 8 -7 7 -15z
m30 0 c-4 -24 -16 -30 -16 -7 0 12 4 22 9 22 5 0 8 -7 7 -15z m31 0 c0 -8 -4
-15 -9 -15 -4 0 -8 7 -8 15 0 8 4 15 8 15 5 0 9 -7 9 -15z m60 0 c0 -8 -4 -15
-9 -15 -4 0 -8 7 -8 15 0 8 4 15 8 15 5 0 9 -7 9 -15z m20 -7 c-3 -8 -6 -5 -6
6 -1 11 2 17 5 13 3 -3 4 -12 1 -19z m-141 -53 c-4 -24 -16 -30 -16 -7 0 12 4
22 9 22 5 0 8 -7 7 -15z m30 0 c-4 -24 -16 -30 -16 -7 0 12 4 22 9 22 5 0 8
-7 7 -15z m90 0 c-4 -24 -16 -30 -16 -7 0 12 4 22 9 22 5 0 8 -7 7 -15z m27
-5 c-3 -11 -7 -20 -9 -20 -2 0 -4 9 -4 20 0 11 4 20 9 20 5 0 7 -9 4 -20z m24
-12 c-3 -7 -5 -2 -5 12 0 14 2 19 5 13 2 -7 2 -19 0 -25z m-170 -38 c-1 -11
-5 -20 -9 -20 -4 0 -8 9 -8 20 0 11 4 20 9 20 6 0 9 -9 8 -20z m26 -5 c-7 -21
-13 -19 -13 6 0 11 4 18 10 14 5 -3 7 -12 3 -20z m37 18 c0 -5 -5 -15 -10 -23
-8 -12 -10 -11 -10 8 0 12 5 22 10 22 6 0 10 -3 10 -7z m17 -25 c-3 -7 -5 -2
-5 12 0 14 2 19 5 13 2 -7 2 -19 0 -25z m30 0 c-3 -7 -5 -2 -5 12 0 14 2 19 5
13 2 -7 2 -19 0 -25z m30 0 c-3 -7 -5 -2 -5 12 0 14 2 19 5 13 2 -7 2 -19 0
-25z m30 0 c-3 -7 -5 -2 -5 12 0 14 2 19 5 13 2 -7 2 -19 0 -25z m-147 -38 c0
-5 -9 -10 -20 -10 -11 0 -20 5 -20 10 0 6 9 10 20 10 11 0 20 -4 20 -10z m33
-10 c-3 -11 -7 -20 -9 -20 -2 0 -4 9 -4 20 0 11 4 20 9 20 5 0 7 -9 4 -20z
m33 5 c-4 -24 -16 -30 -16 -7 0 12 4 22 9 22 5 0 8 -7 7 -15z m27 -5 c-3 -11
-7 -20 -9 -20 -2 0 -4 9 -4 20 0 11 4 20 9 20 5 0 7 -9 4 -20z m33 5 c-4 -24
-16 -30 -16 -7 0 12 4 22 9 22 5 0 8 -7 7 -15z m30 0 c-4 -24 -16 -30 -16 -7
0 12 4 22 9 22 5 0 8 -7 7 -15z m-156 -45 c0 -5 -9 -10 -20 -10 -11 0 -20 5
-20 10 0 6 9 10 20 10 11 0 20 -4 20 -10z m63 -15 c-7 -21 -13 -19 -13 6 0 11
4 18 10 14 5 -3 7 -12 3 -20z m33 0 c1 -8 -2 -15 -7 -15 -5 0 -9 10 -9 22 0
23 12 17 16 -7z m27 0 c-7 -21 -13 -19 -13 6 0 11 4 18 10 14 5 -3 7 -12 3
-20z m34 0 c0 -8 -4 -15 -9 -15 -4 0 -8 7 -8 15 0 8 4 15 8 15 5 0 9 -7 9 -15z
m-157 -25 c0 -14 -6 -20 -22 -19 -17 1 -19 2 -5 6 9 2 17 8 17 13 0 5 -8 11
-17 13 -14 4 -12 5 5 6 16 1 22 -5 22 -19z m63 -30 c-3 -11 -7 -20 -9 -20 -2
0 -4 9 -4 20 0 11 4 20 9 20 5 0 7 -9 4 -20z m30 5 c4 -8 2 -17 -3 -20 -6 -4
-10 3 -10 14 0 25 6 27 13 6z m30 -5 c-3 -11 -7 -20 -9 -20 -2 0 -4 9 -4 20 0
11 4 20 9 20 5 0 7 -9 4 -20z m24 -12 c-3 -7 -5 -2 -5 12 0 14 2 19 5 13 2 -7
2 -19 0 -25z"/>
<path d="M4142 3468 c-8 -10 7 -13 69 -13 76 0 97 6 63 19 -28 11 -121 6 -132
-6z"/>
<path d="M4362 3467 c-9 -10 3 -12 59 -9 46 3 74 0 84 -8 18 -15 20 1 3 18
-16 16 -132 16 -146 -1z"/>
<path d="M4036 3405 c-17 -13 -18 -15 -3 -15 9 0 17 4 17 9 0 6 17 12 38 14
l37 4 -35 1 c-19 1 -44 -5 -54 -13z"/>
<path d="M4538 3413 c12 -2 32 -2 45 0 12 2 2 4 -23 4 -25 0 -35 -2 -22 -4z"/>
<path d="M4498 3393 c6 -2 18 -2 25 0 6 3 1 5 -13 5 -14 0 -19 -2 -12 -5z"/>
<path d="M2177 2981 c-17 -6 -17 -8 2 -25 12 -11 21 -14 21 -8 0 6 3 17 6 26
7 17 0 19 -29 7z"/>
<path d="M4200 2957 c0 -8 7 -17 15 -21 8 -3 15 -3 15 0 0 3 -7 12 -15 20 -13
13 -15 13 -15 1z"/>
<path d="M4300 1806 c0 -2 7 -6 15 -10 8 -3 15 -1 15 4 0 6 -7 10 -15 10 -8 0
-15 -2 -15 -4z"/>
<path d="M4260 1740 c0 -5 5 -10 10 -10 6 0 10 5 10 10 0 6 -4 10 -10 10 -5 0
-10 -4 -10 -10z"/>
<path d="M4183 1685 c-17 -18 -16 -22 2 -22 8 0 15 9 15 19 0 21 -1 22 -17 3z"/>
<path d="M4142 1658 c-7 -7 -12 -19 -12 -27 0 -9 -8 -25 -17 -36 -15 -20 -15
-20 -10 3 4 19 3 21 -9 11 -15 -12 -20 -59 -6 -59 4 0 18 18 32 39 13 22 27
38 31 35 10 -6 18 21 10 34 -5 9 -10 9 -19 0z"/>
<path d="M4160 1585 c-24 -25 -42 -45 -39 -45 3 0 25 20 49 45 24 25 42 45 39
45 -3 0 -25 -20 -49 -45z"/>
<path d="M3610 1110 c0 -5 7 -10 15 -10 8 0 15 5 15 10 0 6 -7 10 -15 10 -8 0
-15 -4 -15 -10z"/>
<path d="M3540 1040 c0 -5 5 -10 10 -10 6 0 10 5 10 10 0 6 -4 10 -10 10 -5 0
-10 -4 -10 -10z"/>
<path d="M3472 971 c2 -7 7 -12 11 -12 12 1 9 15 -3 20 -7 2 -11 -2 -8 -8z"/>
<path d="M3692 463 c3 -14 13 -18 51 -18 38 0 47 3 47 18 0 14 -9 17 -51 17
-43 0 -50 -3 -47 -17z"/>
<path d="M6005 4704 c-78 -84 50 -210 130 -129 25 24 29 38 25 85 -5 69 -106
97 -155 44z m25 -65 c0 -5 -4 -9 -10 -9 -5 0 -10 7 -10 16 0 8 5 12 10 9 6 -3
10 -10 10 -16z m17 -1 c-3 -8 -6 -5 -6 6 -1 11 2 17 5 13 3 -3 4 -12 1 -19z
m63 2 c0 -11 -22 -18 -37 -12 -22 7 -14 20 12 20 14 0 25 -4 25 -8z"/>
<path d="M1828 3513 c7 -3 16 -2 19 1 4 3 -2 6 -13 5 -11 0 -14 -3 -6 -6z"/>
<path d="M1810 3447 c0 -8 9 -17 20 -20 15 -4 20 0 20 14 0 10 -5 19 -11 19
-5 0 -7 -6 -3 -12 5 -9 2 -9 -9 1 -15 11 -17 11 -17 -2z"/>
</g>
</svg>
